<svg xmlns="http://www.w3.org/2000/svg" viewBox="0 0 200 200" width="200" height="200">
  <rect width="200" height="200" fill="#ffffff"/>
  <g fill="#1a1a1a">
    <!-- top-left finder -->
    <rect x="10" y="10" width="50" height="50" rx="6"/>
    <rect x="18" y="18" width="34" height="34" fill="#fff" rx="4"/>
    <rect x="24" y="24" width="22" height="22" rx="3"/>
    <!-- top-right finder -->
    <rect x="140" y="10" width="50" height="50" rx="6"/>
    <rect x="148" y="18" width="34" height="34" fill="#fff" rx="4"/>
    <rect x="154" y="24" width="22" height="22" rx="3"/>
    <!-- bottom-left finder -->
    <rect x="10" y="140" width="50" height="50" rx="6"/>
    <rect x="18" y="148" width="34" height="34" fill="#fff" rx="4"/>
    <rect x="24" y="154" width="22" height="22" rx="3"/>
    <!-- data modules -->
    <rect x="70" y="10" width="8" height="8"/><rect x="86" y="10" width="8" height="8"/><rect x="102" y="10" width="8" height="8"/><rect x="118" y="10" width="8" height="8"/>
    <rect x="70" y="26" width="8" height="8"/><rect x="102" y="26" width="8" height="8"/><rect x="126" y="26" width="8" height="8"/>
    <rect x="78" y="42" width="8" height="8"/><rect x="94" y="42" width="8" height="8"/><rect x="110" y="42" width="8" height="8"/><rect x="126" y="42" width="8" height="8"/>
    <rect x="10" y="70" width="8" height="8"/><rect x="26" y="70" width="8" height="8"/><rect x="42" y="70" width="8" height="8"/><rect x="70" y="70" width="8" height="8"/><rect x="86" y="70" width="8" height="8"/><rect x="110" y="70" width="8" height="8"/><rect x="134" y="70" width="8" height="8"/><rect x="150" y="70" width="8" height="8"/><rect x="166" y="70" width="8" height="8"/><rect x="182" y="70" width="8" height="8"/>
    <rect x="18" y="86" width="8" height="8"/><rect x="34" y="86" width="8" height="8"/><rect x="78" y="86" width="8" height="8"/><rect x="94" y="86" width="8" height="8"/><rect x="118" y="86" width="8" height="8"/><rect x="142" y="86" width="8" height="8"/><rect x="174" y="86" width="8" height="8"/>
    <rect x="10" y="102" width="8" height="8"/><rect x="50" y="102" width="8" height="8"/><rect x="66" y="102" width="8" height="8"/><rect x="90" y="102" width="8" height="8"/><rect x="106" y="102" width="8" height="8"/><rect x="134" y="102" width="8" height="8"/><rect x="158" y="102" width="8" height="8"/><rect x="182" y="102" width="8" height="8"/>
    <rect x="26" y="118" width="8" height="8"/><rect x="42" y="118" width="8" height="8"/><rect x="74" y="118" width="8" height="8"/><rect x="98" y="118" width="8" height="8"/><rect x="122" y="118" width="8" height="8"/><rect x="146" y="118" width="8" height="8"/><rect x="170" y="118" width="8" height="8"/>
    <rect x="70" y="140" width="8" height="8"/><rect x="86" y="140" width="8" height="8"/><rect x="102" y="140" width="8" height="8"/><rect x="126" y="140" width="8" height="8"/><rect x="142" y="140" width="8" height="8"/><rect x="158" y="140" width="8" height="8"/><rect x="182" y="140" width="8" height="8"/>
    <rect x="78" y="156" width="8" height="8"/><rect x="102" y="156" width="8" height="8"/><rect x="118" y="156" width="8" height="8"/><rect x="134" y="156" width="8" height="8"/><rect x="150" y="156" width="8" height="8"/><rect x="174" y="156" width="8" height="8"/>
    <rect x="70" y="172" width="8" height="8"/><rect x="94" y="172" width="8" height="8"/><rect x="110" y="172" width="8" height="8"/><rect x="134" y="172" width="8" height="8"/><rect x="150" y="172" width="8" height="8"/><rect x="166" y="172" width="8" height="8"/><rect x="182" y="172" width="8" height="8"/>
  </g>
  <!-- WeChat logo center -->
  <circle cx="100" cy="100" r="26" fill="#fff"/>
  <circle cx="100" cy="100" r="24" fill="#07c160"/>
  <g fill="#fff">
    <ellipse cx="91" cy="95" rx="7" ry="6"/>
    <ellipse cx="109" cy="95" rx="7" ry="6"/>
    <circle cx="93" cy="94" r="1.5" fill="#07c160"/>
    <circle cx="111" cy="94" r="1.5" fill="#07c160"/>
    <path d="M88 104 Q92 110 100 110 Q108 110 112 104" stroke="#fff" stroke-width="2" fill="none" stroke-linecap="round"/>
  </g>
</svg>